<svg width="119" height="50" viewBox="0 0 119 50" fill="none" xmlns="http://www.w3.org/2000/svg">
  <mask id="mask0_12_8" style="mask-type:luminance" maskUnits="userSpaceOnUse" x="111" y="37" width="8" height="8">
  <path d="M115.006 37.7487C114.117 37.7487 113.351 38.0772 112.713 38.7254C112.076 39.3844 111.756 40.1682 111.756 41.0695C111.756 41.9709 112.076 42.7645 112.713 43.4235C113.351 44.0717 114.117 44.4012 115.006 44.4012C115.895 44.4012 116.651 44.0726 117.295 43.4235C117.926 42.7645 118.247 41.9808 118.247 41.0695C118.247 40.1583 117.926 39.3844 117.295 38.7254C116.651 38.0772 115.889 37.7487 115.006 37.7487Z" fill="white"/>
  </mask>
  <g mask="url(#mask0_12_8)">
  <path d="M143.765 50.2735L104.034 35.2519L128.485 9.39249L143.765 50.2735Z" fill="white"/>
  <path d="M143.773 50.2609L108.743 56.267L104.034 35.2519L143.773 50.2609Z" fill="white"/>
  <g style="mix-blend-mode:multiply">
  <path d="M281.994 -52.9821L241.963 147.302L-107.241 94.5866L281.994 -52.9821Z" fill="white"/>
  </g>
  <g style="mix-blend-mode:multiply">
  <path d="M115.085 153.191L185.551 23.2541L-159.428 25.9277L115.085 153.191Z" fill="white"/>
  </g>
  <g style="mix-blend-mode:multiply">
  <path d="M367.071 162.225L244.915 41.452L31.7441 79.1216L367.071 162.225Z" fill="white"/>
  </g>
  <g style="mix-blend-mode:multiply">
  <path d="M176.109 23.457L298.271 144.229L-37.0605 61.1284L176.109 23.457Z" fill="white"/>
  </g>
  <g style="mix-blend-mode:multiply">
  <path d="M91.7673 7.09061L292.504 92.5846L-145.263 154.132L91.7673 7.09061Z" fill="white"/>
  </g>
  </g>
  <path d="M16.225 44.0681L18.1763 32.4464L14.5995 5.83102H6.16045L0.962646 44.438H7.44961L8.94808 28.4585H11.8014L13.3008 44.438H18.3146L16.225 44.0681ZM9.21082 25.7966L10.3791 13.8149L11.5483 25.7966H9.21082Z" fill="white"/>
  <path d="M28.5378 42.3192L24.4015 41.5875L28.0824 19.6702V9.83868C28.0824 8.68774 28.5352 7.25849 30.3472 6.18026L30.3498 6.1659L23.9548 5.0365L17.5659 43.0841L30.3656 45.342L30.5539 44.2279C29.5301 43.6641 28.903 42.9979 28.5387 42.3183L28.5378 42.3192Z" fill="black"/>
  <path d="M28.5378 42.3192L24.4015 41.5875L28.0824 19.6702V9.83868C28.0824 8.68774 28.5352 7.25849 30.3472 6.18026L30.3498 6.1659L23.9548 5.0365L17.5659 43.0841L30.3656 45.342L30.5539 44.2279C29.5301 43.6641 28.903 42.9979 28.5387 42.3183L28.5378 42.3192Z" fill="white"/>
  <path d="M41.5808 6.3266C40.7147 6.11023 39.4159 5.93965 37.6792 5.83102H37.0416C35.3041 5.93965 34.0026 6.11023 33.1417 6.3266C30.5424 6.99185 29.241 8.15805 29.241 9.82611V40.4429C29.241 42.1109 30.5424 43.2753 33.1417 43.9406C34.0026 44.1587 35.3041 44.3293 37.0416 44.437H37.6792C39.415 44.3284 40.7147 44.1578 41.5808 43.9406C43.9919 43.3238 45.2688 42.2698 45.4439 40.7885L43.3543 6.95863C42.849 6.71443 42.2622 6.50346 41.5808 6.3275V6.3266ZM38.9894 39.1106C38.9894 39.7327 38.823 40.222 38.5024 40.5766C38.174 40.9294 37.7965 41.1063 37.3595 41.1063C36.9225 41.1063 36.5205 40.9393 36.1991 40.5919C35.8873 40.2471 35.7314 39.7507 35.7314 39.1097V11.1575C35.7314 10.5336 35.8978 10.0452 36.2157 9.69145C36.545 9.33772 36.9234 9.15817 37.3586 9.15817C37.7939 9.15817 38.1985 9.32696 38.5173 9.6735C38.8326 10.0182 38.9894 10.5147 38.9894 11.1566V39.1088V39.1106Z" fill="white"/>
  <path d="M82.7894 2.9429L74.8871 2.34318L68.6445 39.3117L67.7836 1.80183L59.0914 1.14017L52.8514 38.1185L51.9888 0.602402L44.0874 0L47.0187 47.4374L57.2794 48.2158L62.7338 11.1809L62.8126 48.6377L73.076 49.4134L78.7056 22.482V4.61186H82.4399L82.7894 2.9429Z" fill="white"/>
  <path d="M86.3546 8.45702H88.6334L88.3847 7.59965L92.8538 6.25209V5.79153H79.865V44.4002H92.8538V41.7348H86.3546V28.4226H92.8538V25.7589H86.3546V8.45702Z" fill="white"/>
  <path d="M105.941 41.004L102.277 28.2305L108.512 26.3523L107.777 23.7955L101.543 25.6709L96.7853 9.0729L103.02 7.19745L102.287 4.64059L89.8298 8.39597L100.445 45.4336L110.779 42.3219C110.67 41.926 110.596 41.5184 110.596 41.0839C110.596 40.5264 110.698 40.0075 110.878 39.5146L105.94 41.0049L105.941 41.004Z" fill="white"/>
  <path d="M118.247 5.79153H111.756V35.0805H118.247V5.79153Z" fill="white"/>
</svg>
