<svg width="48" height="47" viewBox="0 0 48 47" fill="none" xmlns="http://www.w3.org/2000/svg">
<g clip-path="url(#clip0_444_55)">
<path d="M35.7926 43.7858H25.9262V43.2345C25.9262 42.8536 25.6188 42.5463 25.2379 42.5463H22.7588C22.3779 42.5463 22.0705 42.8536 22.0705 43.2345V43.7858H5.54848V42.6398C5.54848 42.2589 5.2411 41.9515 4.8602 41.9515H3.71419V25.4295H4.26548C4.64637 25.4295 4.95376 25.1221 4.95376 24.7413V22.2621C4.95376 21.8812 4.64637 21.5738 4.26548 21.5738H3.71419V5.04849H4.8602C5.2411 5.04849 5.54848 4.74111 5.54848 4.36022V3.2142H9.36074C9.74163 3.2142 10.049 2.90682 10.049 2.52592C10.049 2.14503 9.74163 1.83765 9.36074 1.83765H5.54848V0.691631C5.54848 0.31074 5.2411 0.0033534 4.8602 0.0033534H1.18828C0.807386 1.22446e-05 0.5 0.307398 0.5 0.68829V4.36022C0.5 4.74111 0.807386 5.04849 1.18828 5.04849H2.33429V21.5705H1.783C1.40211 21.5705 1.09473 21.8779 1.09473 22.2588V24.7379C1.09473 25.1188 1.40211 25.4262 1.783 25.4262H2.33429V41.9482H1.18828C0.807386 41.9482 0.5 42.2556 0.5 42.6365V46.3084C0.5 46.6893 0.807386 46.9967 1.18828 46.9967H4.8602C5.2411 46.9967 5.54848 46.6893 5.54848 46.3084V45.1624H22.0705V45.7137C22.0705 46.0946 22.3779 46.402 22.7588 46.402H25.2379C25.6188 46.402 25.9262 46.0946 25.9262 45.7137V45.1624H35.7926C36.1735 45.1624 36.4809 44.855 36.4809 44.4741C36.4809 44.0932 36.1735 43.7858 35.7926 43.7858ZM1.87655 1.37657H4.17193V3.67194H1.87655V1.37657ZM2.47462 22.9504H3.5772V24.053H2.47462V22.9504ZM4.17193 45.6235H1.87655V43.3281H4.17193V45.6235ZM24.5496 45.0254H23.447V43.9228H24.5496V45.0254Z" fill="#F4E8E8"/>
<path d="M46.8117 5.04848C47.1925 5.04848 47.4999 4.7411 47.4999 4.36021V0.688278C47.4999 0.307386 47.1925 0 46.8117 0H43.1397C42.7588 0 42.4515 0.307386 42.4515 0.688278V1.83429H25.9294V1.283C25.9294 0.902111 25.6221 0.594725 25.2412 0.594725H22.762C22.3811 0.594725 22.0738 0.902111 22.0738 1.283V1.83429H12.6751C12.2942 1.83429 11.9868 2.14168 11.9868 2.52257C11.9868 2.90346 12.2942 3.21085 12.6751 3.21085H22.0738V3.76214C22.0738 4.14303 22.3811 4.45042 22.762 4.45042H25.2412C25.6221 4.45042 25.9294 4.14303 25.9294 3.76214V3.21085H42.4515V4.35686C42.4515 4.73776 42.7588 5.04514 43.1397 5.04514H44.2857V21.5671H43.7345C43.3536 21.5671 43.0462 21.8745 43.0462 22.2554V24.7346C43.0462 25.1154 43.3536 25.4228 43.7345 25.4228H44.2857V41.9448H43.1397C42.7588 41.9448 42.4515 42.2522 42.4515 42.6331V43.7791H39.0101C38.6292 43.7791 38.3218 44.0865 38.3218 44.4674C38.3218 44.8483 38.6292 45.1557 39.0101 45.1557H42.4515V46.3017C42.4515 46.6826 42.7588 46.99 43.1397 46.99H46.8117C47.1925 46.99 47.4999 46.6826 47.4999 46.3017V42.6298C47.4999 42.2489 47.1925 41.9415 46.8117 41.9415H45.6656V25.4195H46.2169C46.5978 25.4195 46.9052 25.1121 46.9052 24.7312V22.2521C46.9052 21.8712 46.5978 21.5638 46.2169 21.5638H45.6656V5.04848H46.8117ZM24.5496 3.07386H23.447V1.97128H24.5496V3.07386ZM46.1234 45.6234H43.828V43.3281H46.1234V45.6234ZM45.5253 24.0496H44.4227V22.947H45.5253V24.0496ZM43.828 1.37656H46.1234V3.67193H43.828V1.37656Z" fill="#F4E8E8"/>
<path d="M7.77709 39.1216C7.99092 39.4223 8.3384 39.6027 8.70593 39.6027H16.5877C17.3395 39.6027 18.0244 39.1282 18.2884 38.4199L20.293 33.0273H27.7238L29.7051 38.4132C29.9657 39.1249 30.6506 39.5993 31.4057 39.5993H39.2908C39.6584 39.5993 40.0058 39.4189 40.2197 39.1182C40.4335 38.8175 40.487 38.4299 40.3633 38.0825L30.0225 8.60012C29.7686 7.87509 29.0803 7.39062 28.3118 7.39062H23.8447H19.6816C18.9131 7.39062 18.2282 7.87843 17.9709 8.60346L7.63008 38.0825C7.50645 38.4299 7.56325 38.8175 7.77375 39.1182L7.77709 39.1216ZM19.274 9.06454C19.3341 8.8908 19.5012 8.77386 19.685 8.77386H23.848C23.8681 8.77386 23.8881 8.77386 23.9048 8.7772C24.0686 8.80059 24.2055 8.91085 24.259 9.06454L26.8551 16.4619C26.982 16.8194 27.3729 17.0098 27.7338 16.8828C28.0913 16.7559 28.2817 16.365 28.1548 16.0041L25.6188 8.77052H28.3185C28.5023 8.77052 28.6693 8.88746 28.7295 9.0612L38.9601 38.2228H35.943C35.933 38.176 35.9196 38.1292 35.9063 38.0858L29.2273 19.0446C29.1003 18.6871 28.7094 18.4966 28.3486 18.6236C27.9911 18.7505 27.8006 19.1415 27.9276 19.5023L34.4963 38.2228H31.4124C31.2286 38.2228 31.0649 38.1092 31.0048 37.9388L28.8564 32.1018C28.7562 31.8312 28.4989 31.6507 28.2116 31.6507H15.3548C15.0675 31.6507 14.8102 31.8312 14.71 32.0984L14.1453 33.6153C14.0117 33.9728 14.1954 34.3671 14.5496 34.5007C14.9071 34.6344 15.3014 34.4506 15.435 34.0965L15.8326 33.0273H18.8296L17.0054 37.9388C16.9419 38.1092 16.7782 38.2228 16.5977 38.2228H13.9048L14.3124 37.1235C14.446 36.766 14.2623 36.3718 13.9081 36.2381C13.5506 36.1045 13.1563 36.2883 13.0227 36.6424L12.5416 37.9354C12.5115 38.0156 12.4614 38.0858 12.3912 38.1359C12.3144 38.1927 12.2242 38.2228 12.1306 38.2228H9.05341L19.274 9.06454Z" fill="#F4E8E8"/>
<path d="M16.8449 28.4399H21.3087C21.3087 28.4399 21.3087 28.4399 21.3121 28.4399C21.3121 28.4399 21.3121 28.4399 21.3154 28.4399H26.7214C26.9453 28.4399 27.1524 28.333 27.2827 28.1492C27.413 27.9654 27.4431 27.7349 27.3696 27.5244L22.4147 13.4014C22.3178 13.124 22.0571 12.9403 21.7665 12.9403C21.4724 12.9403 21.2118 13.1274 21.1183 13.4014L16.1968 27.5244C16.1233 27.7349 16.1567 27.9688 16.287 28.1492C16.4173 28.3296 16.6244 28.4399 16.8483 28.4399H16.8449ZM22.281 27.0633L24.0084 22.1017L25.7491 27.0633H22.281ZM21.7698 15.7134L23.28 20.0135L20.8243 27.06H17.8172L21.7732 15.7101L21.7698 15.7134Z" fill="white"/>
</g>
<defs>
<clipPath id="clip0_444_55">
<rect width="47" height="47" fill="white" transform="translate(0.5)"/>
</clipPath>
</defs>
</svg>