<svg width="42" height="29" viewBox="0 0 42 29" fill="none" xmlns="http://www.w3.org/2000/svg">
<path d="M41.6629 1.6322C41.622 1.55322 41.5763 1.47709 41.5262 1.4043L28.897 12.4575L41.4188 27.7786C41.7949 27.2485 41.9989 26.6033 41.9999 25.9399V3.06694C42.0002 2.56662 41.8845 2.0739 41.6629 1.6322Z" fill="#D9D9D9"/>
<path d="M0.488369 1.4043C0.438252 1.47709 0.392578 1.55322 0.351626 1.6322C0.124977 2.07251 0.0042032 2.5653 0 3.06694V25.9399C0.00105639 26.6033 0.204979 27.2485 0.581159 27.7786L13.1029 12.4575L0.488369 1.4043Z" fill="#D9D9D9"/>
<path d="M20.9998 16.2277C21.8366 16.2255 22.6465 15.9141 23.2903 15.3472L40.432 0.326442C40.0217 0.107517 39.5679 -0.00435302 39.1086 0.000129589H2.89111C2.43015 0.00205782 1.97633 0.121054 1.56763 0.34716L18.7094 15.3679C19.3562 15.9266 20.1656 16.2305 20.9998 16.2277Z" fill="#D9D9D9"/>
<path d="M24.2233 16.5755C23.3172 17.3723 22.1771 17.8084 21 17.8084C19.823 17.8084 18.6829 17.3723 17.7768 16.5755L14.2313 13.4678L1.729 28.7475C2.09528 28.9185 2.49113 29.0067 2.89132 29.0065H39.1088C39.509 29.0067 39.9048 28.9185 40.2711 28.7475L27.7688 13.4678L24.2233 16.5755Z" fill="#D9D9D9"/>
</svg>
