<svg width="42" height="37" viewBox="0 0 42 37" fill="none" xmlns="http://www.w3.org/2000/svg">
<g clip-path="url(#clip0_109_396)">
<path d="M18.0862 31.7999C10.7308 31.7999 4.74609 25.7497 4.74609 18.3117C4.74609 10.8737 10.7308 4.82556 18.0862 4.82556C24.8739 4.82556 30.5696 9.95956 31.3375 16.7694L30.039 16.9197C29.3475 10.7798 24.2092 6.14871 18.0862 6.14871C11.4512 6.14871 6.05285 11.6062 6.05285 18.3138C6.05285 25.0214 11.4512 30.4789 18.0862 30.4789C24.2071 30.4789 29.3454 25.8478 30.039 19.7079L31.3375 19.8582C30.5696 26.6659 24.8739 31.802 18.0862 31.802V31.7999Z" fill="#DEC2FF"/>
<path d="M18.0861 27.0019C13.3463 27.0019 9.48999 23.1034 9.48999 18.3117C9.48999 13.5199 13.3463 9.62354 18.0861 9.62354C22.2294 9.62354 25.7842 12.61 26.5357 16.7235L25.2496 16.9635C24.6117 13.4761 21.5997 10.9446 18.0861 10.9446C14.0667 10.9446 10.7988 14.2504 10.7988 18.3117C10.7988 22.373 14.0688 25.6788 18.0861 25.6788C21.5997 25.6788 24.6117 23.1472 25.2496 19.6599L26.5357 19.8999C25.7842 24.0133 22.2294 26.9998 18.0861 26.9998V27.0019Z" fill="#DEC2FF"/>
<path d="M18.0861 36.5979C8.11306 36.5979 0 28.3961 0 18.3138C0 8.23154 8.11306 0.0296631 18.0861 0.0296631C22.6567 0.0296631 27.0188 1.75561 30.3693 4.88818C33.7012 8.00406 35.7408 12.2302 36.1124 16.7903L34.8098 16.8988C34.0996 8.18145 26.7525 1.35073 18.0882 1.35073C8.83354 1.35073 1.30676 8.9599 1.30676 18.3138C1.30676 27.6677 8.83354 35.2769 18.0861 35.2769C26.7525 35.2769 34.0976 28.4482 34.8077 19.7288L36.1104 19.8373C35.7388 24.3953 33.6991 28.6215 30.3672 31.7373C27.0167 34.872 22.6546 36.5979 18.0841 36.5979H18.0861Z" fill="#DEC2FF"/>
<path d="M18.0862 22.2039C15.964 22.2039 14.2361 20.4571 14.2361 18.3117C14.2361 16.1662 15.964 14.4194 18.0862 14.4194C18.7943 14.4194 19.4879 14.6177 20.0948 14.9954L19.4115 16.1224C19.011 15.8741 18.5527 15.7426 18.0862 15.7426C16.6845 15.7426 15.5449 16.8946 15.5449 18.3117C15.5449 19.7287 16.6845 20.8808 18.0862 20.8808C18.5527 20.8808 19.011 20.7493 19.4115 20.5009L20.0948 21.6279C19.4879 22.0057 18.7922 22.2039 18.0862 22.2039Z" fill="#DEC2FF"/>
<path d="M39.8923 20.4425H37.479V16.183H39.8923C40.4559 16.183 40.9843 16.4042 41.3828 16.807C41.7791 17.2077 42 17.742 42 18.3117C42 18.8815 41.7812 19.4157 41.3828 19.8185C40.9843 20.2213 40.4559 20.4425 39.8943 20.4425H39.8923ZM38.7858 19.1215H39.8923C40.1049 19.1215 40.3072 19.038 40.4579 18.8856C40.6086 18.7333 40.6912 18.5308 40.6912 18.3138C40.6912 18.0968 40.6086 17.8943 40.4579 17.7441C40.3072 17.5896 40.1049 17.5061 39.8923 17.5061H38.7858V19.1215Z" fill="#DEC2FF"/>
<path d="M21.0299 20.3843L16.4985 18.314L21.0299 16.2416L21.5687 17.4458L19.6715 18.314L21.5687 19.1801L21.0299 20.3843Z" fill="#DEC2FF"/>
<path d="M38.1335 20.4425H21.3004C20.9391 20.4425 20.646 20.1462 20.646 19.781V16.8446C20.646 16.4793 20.9391 16.183 21.3004 16.183H38.1335C38.4947 16.183 38.7879 16.4793 38.7879 16.8446V19.781C38.7879 20.1462 38.4947 20.4425 38.1335 20.4425ZM21.9528 19.1215H37.4791V17.5061H21.9528V19.1215Z" fill="#DEC2FF"/>
</g>
<defs>
<clipPath id="clip0_109_396">
<rect width="42" height="36.5683" fill="white" transform="translate(0 0.0296631)"/>
</clipPath>
</defs>
</svg>
