<svg width="44" height="42" viewBox="0 0 44 42" fill="none" xmlns="http://www.w3.org/2000/svg">
<path fill-rule="evenodd" clip-rule="evenodd" d="M22.0001 42C34.1502 42 44 32.5979 44 21C44 9.40201 34.1502 0 22.0001 0C9.84987 0 0.000182416 9.40201 0.000182416 21C0.000182416 32.5979 9.84987 42 22.0001 42ZM32.3466 26.0822L29.7326 23.5817C28.8614 22.7482 27.1188 22.7482 26.2476 23.5817L24.505 25.2487C21.3797 24.8243 17.9704 21.4979 17.5348 18.5808L19.2774 16.9138C20.1486 16.0803 20.1488 14.4132 19.2774 13.5798L16.648 11.1751C15.7765 10.3416 14.0499 10.2458 13.1785 11.0794C11.436 12.7463 11.0001 13.9968 11.0001 15.6636C11.0001 18.1642 11.4363 21.0809 16.6638 26.0818C21.8916 31.0827 24.0692 31.5 27.5542 31.5C28.4469 31.5 30.6608 31.0288 32.3464 29.4162C33.2178 28.5825 33.2178 26.9157 32.3466 26.0822Z" fill="#D9D9D9"/>
<path d="M0 39.8538L6.11109 30.1923L12.2222 36.2307L0 39.8538Z" fill="#D9D9D9"/>
</svg>
