<svg width="60" height="62" viewBox="0 0 60 62" fill="none" xmlns="http://www.w3.org/2000/svg">
<path d="M42.2343 32.0335L40.755 30.4993L56.6773 13.9892L46.9265 3.8831L31.0107 20.3898L29.5347 18.8556L46.9265 0.814636L59.636 13.9857L42.2343 32.0335Z" fill="#B75BAC"/>
<path d="M13.6122 61.7182L0.906006 48.5437L18.311 30.4993L19.7903 32.0336L3.86462 48.5437L13.6122 58.6497L29.5346 42.1396L31.0106 43.6739L13.6122 61.7182Z" fill="#B75BAC"/>
<path d="M6.55341 44.2211L5.07568 45.7542L8.81683 49.6329L10.2946 48.0998L6.55341 44.2211Z" fill="#B75BAC"/>
<path d="M9.97896 40.6719L8.50098 42.2047L12.2415 46.0841L13.7194 44.5512L9.97896 40.6719Z" fill="#B75BAC"/>
<path d="M13.4045 37.113L11.9265 38.6458L15.667 42.5252L17.145 40.9923L13.4045 37.113Z" fill="#B75BAC"/>
<path d="M16.8298 33.5611L15.3516 35.0937L19.0914 38.9737L20.5696 37.4411L16.8298 33.5611Z" fill="#B75BAC"/>
<path d="M33.9609 15.7925L32.4834 17.3259L36.2275 21.2064L37.705 19.673L33.9609 15.7925Z" fill="#B75BAC"/>
<path d="M37.3891 12.2399L35.9114 13.773L39.6549 17.6541L41.1326 16.121L37.3891 12.2399Z" fill="#B75BAC"/>
<path d="M40.8156 8.69165L39.3381 10.225L43.0823 14.1055L44.5597 12.5721L40.8156 8.69165Z" fill="#B75BAC"/>
<path d="M44.236 5.13059L42.7588 6.66425L46.5036 10.544L47.9808 9.01034L44.236 5.13059Z" fill="#B75BAC"/>
<path d="M49.8955 57.4374H55.5057V51.6155L49.8955 57.4374Z" fill="#B75BAC"/>
<path d="M44.2822 58.523C44.0147 58.523 43.7472 58.4168 43.5425 58.2045L9.24434 22.6295C9.04952 22.4274 8.93726 22.15 8.93726 21.8624C8.93726 21.5747 9.04622 21.2973 9.24434 21.0953L12.9855 17.2152C13.395 16.7905 14.0554 16.7905 14.4649 17.2152L48.763 52.7867C48.9578 52.9888 49.0701 53.2662 49.0701 53.5538C49.0701 53.8415 48.9611 54.1189 48.763 54.321L45.0218 58.2011C44.8171 58.4134 44.5496 58.5195 44.2822 58.5195V58.523ZM11.4633 21.8624L44.2855 55.9031L46.5474 53.5573L13.7252 19.5165L11.4633 21.8624Z" fill="#B75BAC"/>
<path d="M48.0231 54.6429C47.7557 54.6429 47.4882 54.5367 47.2835 54.3244L12.9853 18.7494C12.5759 18.3247 12.5759 17.6398 12.9853 17.2152L16.7265 13.3351C17.1195 12.9275 17.8129 12.9275 18.2058 13.3351L52.5073 48.9101C52.7021 49.1121 52.8144 49.3895 52.8144 49.6772C52.8144 49.9648 52.7054 50.2422 52.5073 50.4443L48.7661 54.3244C48.5614 54.5367 48.2939 54.6429 48.0264 54.6429H48.0231ZM15.2043 17.9823L48.0264 52.023L50.2883 49.6772L17.4662 15.6364L15.2043 17.9823Z" fill="#B75BAC"/>
<path d="M51.7641 50.7628C51.4867 50.7628 51.2193 50.6498 51.0244 50.4443L16.7263 14.8693C16.3168 14.4447 16.3168 13.7598 16.7263 13.3351L20.4675 9.455C20.8604 9.04747 21.5538 9.04747 21.9468 9.455L56.245 45.0266C56.6544 45.4512 56.6544 46.1361 56.245 46.5608L52.5071 50.4443C52.3122 50.6464 52.0448 50.7628 51.7674 50.7628H51.7641ZM18.9419 14.1022L51.7641 48.143L54.026 45.7937L21.2071 11.7563L18.9452 14.1056L18.9419 14.1022Z" fill="#B75BAC"/>
<path d="M44.2825 58.523V56.3518H54.4593V45.7936H56.5495V58.5195L44.2825 58.523Z" fill="#B75BAC"/>
<path d="M9.98374 22.948C9.71628 22.948 9.44881 22.8418 9.24409 22.6295L6.62227 19.9137C6.42415 19.7117 6.31519 19.4343 6.31519 19.1466C6.31519 18.8589 6.42415 18.5816 6.62227 18.3795L17.8459 6.73921C18.2553 6.31455 18.9157 6.31455 19.3252 6.73921L21.947 9.45493C22.1418 9.65699 22.2541 9.93438 22.2541 10.222C22.2541 10.5097 22.1451 10.7871 21.947 10.9892L10.7234 22.6295C10.5187 22.8418 10.2512 22.948 9.98374 22.948ZM8.84124 19.1466L9.98374 20.3281L19.728 10.2186L18.5855 9.03713L8.83794 19.1432L8.84124 19.1466Z" fill="#B75BAC"/>
<path d="M7.36209 20.6808L6.62244 19.9137C4.9252 18.1535 3.99072 15.8144 3.99072 13.3247C3.99072 10.835 4.9252 8.49603 6.62244 6.73577C8.31968 4.97552 10.5783 4.00635 12.9755 4.00635C15.3728 4.00635 17.6314 4.97552 19.3253 6.73577L20.065 7.50289L7.36209 20.6808ZM12.9755 6.18098C11.133 6.18098 9.40275 6.92413 8.09845 8.27343C6.79745 9.62273 6.08091 11.4172 6.08091 13.3282C6.08091 14.8727 6.54979 16.3384 7.41493 17.5576L17.0502 7.56453C15.8747 6.66728 14.4615 6.18098 12.9722 6.18098H12.9755Z" fill="#B75BAC"/>
</svg>
