<svg width="16" height="125" viewBox="0 0 16 125" fill="none" xmlns="http://www.w3.org/2000/svg">
<path d="M14.0271 8H1.89012C1.18331 8 0.823758 7.1505 1.3158 6.64308L7.2004 0.574584C7.50808 0.257293 8.01475 0.249613 8.3319 0.557436L14.5843 6.62594C15.0999 7.12635 14.7456 8 14.0271 8Z" fill="#D9D9D9"/>
<path d="M1.97288 12L14.1099 12C14.8167 12 15.1762 12.8495 14.6842 13.3569L8.7996 19.4254C8.49192 19.7427 7.98525 19.7504 7.6681 19.4426L1.4157 13.3741C0.900125 12.8737 1.25439 12 1.97288 12Z" stroke="#D9D9D9"/>
<circle cx="8.5" cy="34.5" r="6" stroke="#D9D9D9" stroke-opacity="0.25"/>
<circle cx="8.5" cy="55.5" r="6" stroke="#D9D9D9" stroke-opacity="0.25"/>
<circle cx="8.5" cy="76.5" r="6" stroke="#D9D9D9" stroke-opacity="0.25"/>
<circle cx="8.5" cy="97.5" r="6" stroke="#D9D9D9" stroke-opacity="0.25"/>
<circle cx="8.5" cy="118.5" r="6" stroke="#D9D9D9" stroke-opacity="0.25"/>
</svg>
