<svg id="Layer_1" enable-background="new 0 0 66 66" height="512" viewBox="0 0 66 66" width="512" xmlns="http://www.w3.org/2000/svg"><g style="fill:none;stroke:#000;stroke-width:2;stroke-linecap:round;stroke-linejoin:round;stroke-miterlimit:10"><path d="m64 18.1h-9.2v-7.7h9.2"/><g><path d="m6 2.9c-2.2 0-4 1.8-4 4v39.1c0 2.2 1.8 4 4 4h54c2.2 0 4-1.8 4-4v-39.1c0-2.2-1.8-4-4-4z"/><path d="m63 42.6h-60"/><path d="m42.1 56.6h-18.2l2.2-6.6h13.8z"/><path d="m29.6 46.3h6.8"/><path d="m45 63.1h-24c-1.1 0-2-.9-2-2v-2.5c0-1.1.9-2 2-2h24c1.1 0 2 .9 2 2v2.5c0 1.1-.9 2-2 2z"/></g><path d="m9.2 2.9v39.7"/><path d="m2 10.3h7.2"/><path d="m2 18.2h7.1v7.9h-7.1z"/><path d="m2 35.3h7.2"/><path d="m54.8 11.5v-8.6 22.3h8.2"/><path d="m26.4 29h25.6"/><path d="m14 29h7.3"/><path d="m52 36.2h-16.3"/><path d="m30.7 36.2h-16.7"/><path d="m21.3 26.5h5v5h-5z"/><path d="m30.7 33.7h5v5h-5z"/><g><path d="m38.7 21.9-5.5-7.2 5.5-7.2 5.4 7.2z"/><path d="m33 21.9-5.4-7.2 5.4-7.2"/><path d="m27.3 21.9-5.4-7.2 5.4-7.2"/></g></g></svg>