<svg id="Layer_1" enable-background="new 0 0 24 24" height="24" viewBox="0 0 24 24" width="24" xmlns="http://www.w3.org/2000/svg"><g fill="none"><path d="m0 0h24v24h-24z"/><g stroke="#fff" stroke-miterlimit="10"><path d="m15.2431 12.4309-3.936 2.8589c-.307.2248-.7518.0101-.7518-.3834v-5.7167c0-.3846.4365-.6123.7518-.3838l3.936 2.8582c.2597.1889.26.5783 0 .7668z" stroke-linecap="round" stroke-linejoin="round"/><path d="m21.4709 4.8896c-.613-.441-2.3205-1.0271-9.4756-1.0271-7.6678 0-8.8055.6728-9.1705.8932-1.9431 1.1672-2.1275 6.335-2.1447 7.3828.0236 1.3841.2472 5.9888 2.1433 7.1275.3645.2195 1.4957.8884 9.1721.8884 7.16 0 8.8656-.5832 9.4756-1.0223 1.6559-1.1914 1.8465-5.2942 1.8513-7.0116-.0042-1.3811-.1492-6.0051-1.8515-7.2309z"/></g></g></svg>