<svg width="97" height="40" viewBox="0 0 97 40" fill="none" xmlns="http://www.w3.org/2000/svg">
<path d="M94.0304 30.2594C93.3023 30.2594 92.672 30.5202 92.1449 31.0418C91.6233 31.5689 91.3571 32.1992 91.3571 32.9218C91.3571 33.6445 91.6179 34.2802 92.1449 34.8073C92.6665 35.3289 93.2968 35.5897 94.0304 35.5897C94.7639 35.5897 95.3833 35.3235 95.9104 34.8073C96.4265 34.2802 96.6928 33.6499 96.6928 32.9218C96.6928 32.1937 96.4265 31.5689 95.9104 31.0418C95.3833 30.5202 94.753 30.2594 94.0304 30.2594Z" fill="#D2B9EA"/>
<path d="M14.4562 26.0104L12.424 11.28L8.22389 12.8612L9.00632 20.6801H8.04458H7.08828L7.85441 13.0025L3.187 14.7575L0.30722 35.6223H5.63752L6.87093 22.8154H8.04458H9.21279L10.4462 35.6223H14.5648L12.8478 35.3289L14.4562 26.0104Z" fill="#D2B9EA"/>
<path d="M22.9705 33.927L19.5691 33.3402L22.5956 15.7681V14.7684L16.9175 17.3113L13.9508 34.541L24.4702 36.3504L24.6223 35.4593C23.7801 35.0083 23.2639 34.4758 22.9651 33.927" fill="#D2B9EA"/>
<path d="M31.5609 12.8286V31.3515C31.5609 31.8514 31.4251 32.2426 31.1589 32.5252C30.8872 32.8077 30.5775 32.949 30.2189 32.949C29.8602 32.949 29.5288 32.8132 29.268 32.5361C29.0126 32.2589 28.8822 31.8623 28.8822 31.3461V12.2853L23.5465 11.2148V32.4111C23.5465 33.7477 24.6169 34.6823 26.7523 35.2148C27.4586 35.3887 28.529 35.5245 29.9581 35.6114H30.4797C31.9087 35.5245 32.9737 35.3887 33.6855 35.2148C35.6687 34.7203 36.7174 33.8727 36.8586 32.6882L35.6524 13.6382L31.5555 12.8177L31.5609 12.8286Z" fill="#D2B9EA"/>
<path d="M42.9496 30.5582L42.5258 12.5623L36.6196 13.7468L38.1573 38.0293L46.5901 38.6542L50.7794 10.8997L46.1935 11.8234L42.9496 30.5582Z" fill="#D2B9EA"/>
<path d="M55.9303 31.5145L55.4196 9.96512L51.0728 10.8399L51.138 38.9911L59.5708 39.6105L64.1948 18.0176V8.20465L59.8099 9.08488L55.9303 31.5145Z" fill="#D2B9EA"/>
<path d="M70.4814 9.85643L65.1511 8.25354V35.5951H75.8225V33.4597H70.4814V22.7828H75.8225V20.6474H70.4814V9.85643Z" fill="#D2B9EA"/>
<path d="M86.581 32.8729L83.5708 22.6307L88.6946 21.1256L88.0915 19.0717L82.9677 20.5768L80.7182 12.9264L74.6217 11.0953L82.0603 36.421L90.5529 33.927C90.4659 33.6119 90.4007 33.2804 90.4007 32.9327C90.4007 32.4871 90.4822 32.0687 90.6344 31.6721L86.5755 32.8675L86.581 32.8729Z" fill="#D2B9EA"/>
<path d="M91.3571 14.1109V28.124H96.6928V11.5408L91.3571 14.1109Z" fill="#D2B9EA"/>
<path d="M8.04459 4.67285H4.578L3.18701 14.7575L7.85442 13.0025L8.04459 11.0736L8.2239 12.8612L12.424 11.28L11.5166 4.67285H8.04459Z" fill="#B49BD3"/>
<path d="M24.4539 4.94994V4.93908L19.1996 4.03168L16.9175 17.3058L22.5956 14.7629V7.87862C22.5956 6.95492 22.9651 5.80844 24.4593 4.94451" fill="#B49BD3"/>
<path d="M33.6909 5.0695C32.9791 4.89563 31.9087 4.75979 30.4851 4.67285H29.9635C28.5345 4.75979 27.4641 4.89563 26.7577 5.0695C24.6223 5.60199 23.5519 6.53655 23.5519 7.87321V11.2257L28.8876 12.2961V8.94905C28.8876 8.44916 29.0235 8.05795 29.2843 7.7754C29.556 7.49286 29.8657 7.34615 30.2243 7.34615C30.5829 7.34615 30.9144 7.48199 31.1752 7.7591C31.436 8.03621 31.5609 8.43286 31.5609 8.94905V12.834L35.6578 13.6545L35.1471 5.58025C34.7341 5.38464 34.2505 5.21621 33.6909 5.07493" fill="#B49BD3"/>
<path d="M55.2186 1.4399L48.0789 0.912842L46.1935 11.8234L50.7794 10.8997L51.0728 8.95991V10.8399L55.4196 9.96512L55.2186 1.4399Z" fill="#B49BD3"/>
<path d="M67.2647 3.69481L67.5527 2.35816L61.0596 1.87457L59.8099 9.08488L64.1948 8.20465V3.69481H67.2647Z" fill="#B49BD3"/>
<path d="M42.2433 0.47815L35.7502 0L36.6196 13.7469L42.5258 12.5623L42.2433 0.47815Z" fill="#B49BD3"/>
<path d="M72.3559 6.77564L72.1495 6.09101L75.8225 5.00974V4.64026H65.1511V8.25356L70.4814 9.85646V6.77564H72.3559Z" fill="#B49BD3"/>
<path d="M84.1793 5.76499L83.5762 3.71655L73.3394 6.72673L74.6217 11.0953L80.7182 12.9264L79.0555 7.27009L84.1793 5.76499Z" fill="#B49BD3"/>
<path d="M91.3571 4.64026V14.1109L96.6928 11.5409V4.64026H91.3571Z" fill="#B49BD3"/>
</svg>
